<svg width="14" height="14" viewBox="0 0 14 14" fill="none" xmlns="http://www.w3.org/2000/svg">
<path fill-rule="evenodd" clip-rule="evenodd" d="M3.6668 7.33284C3.6668 6.96484 3.96547 6.66617 4.33347 6.66617C4.70147 6.66617 5.00013 6.96484 5.00013 7.33284C5.00013 7.70084 4.70147 7.99951 4.33347 7.99951C3.96547 7.99951 3.6668 7.70084 3.6668 7.33284ZM7.00013 6.66617C6.63213 6.66617 6.33347 6.96484 6.33347 7.33284C6.33347 7.70084 6.63213 7.99951 7.00013 7.99951C7.36813 7.99951 7.6668 7.70084 7.6668 7.33284C7.6668 6.96484 7.36813 6.66617 7.00013 6.66617ZM9.6668 6.66617C9.2988 6.66617 9.00013 6.96484 9.00013 7.33284C9.00013 7.70084 9.2988 7.99951 9.6668 7.99951C10.0348 7.99951 10.3335 7.70084 10.3335 7.33284C10.3335 6.96484 10.0348 6.66617 9.6668 6.66617ZM12.2657 8.1961C11.9277 10.3654 10.1791 12.1648 8.01307 12.5708C6.96707 12.7681 5.90173 12.6554 4.93507 12.2461C4.66107 12.1301 4.37773 12.0714 4.09973 12.0714C3.97307 12.0714 3.84773 12.0834 3.7244 12.1081L1.84973 12.4828L2.22507 10.6048C2.30373 10.2148 2.25573 9.79743 2.08707 9.3981C1.67773 8.43143 1.56573 7.36677 1.7624 6.3201C2.1684 4.1541 3.96707 2.40543 6.13707 2.06743C7.86373 1.79877 9.5524 2.34277 10.7711 3.56143C11.9904 4.78077 12.5351 6.4701 12.2657 8.1961ZM11.7144 2.61877C10.1911 1.0961 8.0844 0.416771 5.93173 0.749437C3.21373 1.17344 0.960401 3.36277 0.451734 6.0741C0.206401 7.37944 0.347734 8.70877 0.859067 9.91744C0.923734 10.0714 0.943734 10.2148 0.918401 10.3434L0.346401 13.2021C0.302401 13.4208 0.371067 13.6468 0.529067 13.8041C0.655067 13.9308 0.825067 13.9994 1.0004 13.9994C1.04373 13.9994 1.08707 13.9954 1.13107 13.9868L3.9864 13.4154C4.1504 13.3841 4.30907 13.4301 4.41507 13.4741C5.62507 13.9854 6.9544 14.1261 8.2584 13.8814C10.9704 13.3728 13.1597 11.1194 13.5837 8.40144C13.9184 6.2501 13.2377 4.1421 11.7144 2.61877Z" fill="white"/>
</svg>
