<svg width="14" height="14" viewBox="0 0 14 14" fill="none" xmlns="http://www.w3.org/2000/svg">
<path fill-rule="evenodd" clip-rule="evenodd" d="M6.19793 7.80861L6.67393 6.64728L7.80193 6.19128L7.32593 7.35261L6.19793 7.80861ZM9.45527 4.54527C9.2726 4.35194 8.98594 4.27727 8.7226 4.38127L5.91393 5.51594C5.74727 5.58327 5.6146 5.71461 5.5466 5.88127L4.38327 8.71994C4.2846 8.96061 4.3426 9.22061 4.50193 9.40527C4.50727 9.41194 4.51127 9.42061 4.51727 9.42794C4.52793 9.43927 4.5406 9.44861 4.5526 9.45994C4.67793 9.58861 4.84793 9.66661 5.02793 9.66661C5.11127 9.66661 5.19593 9.65127 5.27727 9.61861L8.08593 8.48461C8.2526 8.41661 8.38527 8.28527 8.45327 8.11861L9.6166 5.27994C9.7246 5.01727 9.64993 4.72927 9.45527 4.54527ZM7 12.3333C4.05933 12.3333 1.66667 9.94068 1.66667 7.00001C1.66667 4.05934 4.05933 1.66668 7 1.66668C9.94067 1.66668 12.3333 4.05934 12.3333 7.00001C12.3333 9.94068 9.94067 12.3333 7 12.3333ZM7 0.333344C3.324 0.333344 0.333334 3.32401 0.333334 7.00001C0.333334 10.676 3.324 13.6667 7 13.6667C10.676 13.6667 13.6667 10.676 13.6667 7.00001C13.6667 3.32401 10.676 0.333344 7 0.333344Z" fill="white"/>
</svg>
