<svg width="11" height="12" viewBox="0 0 11 12" fill="none" xmlns="http://www.w3.org/2000/svg">
<path fill-rule="evenodd" clip-rule="evenodd" d="M2.99674 4.34434C1.64207 5.81034 1.67074 8.13434 3.08274 9.57367C3.77207 10.2783 4.68807 10.667 5.66407 10.6677H5.6674C6.6454 10.6677 7.56474 10.279 8.2574 9.57367C9.69474 8.10834 9.69207 5.725 8.2514 4.26167L6.26074 2.22767C6.0594 3.88234 5.43874 5.33434 4.3334 5.33434C3.99474 5.33434 3.44274 5.18367 2.99674 4.34434ZM5.6674 12.001H5.66274C4.3254 11.9997 3.07074 11.4697 2.13007 10.5063C0.187403 8.52633 0.184737 5.30433 2.12407 3.32767L2.7794 2.665C2.94874 2.49567 3.19474 2.43033 3.4274 2.491C3.65874 2.55367 3.83874 2.73567 3.89874 2.96767C4.05207 3.56033 4.23474 3.85167 4.3354 3.96233C4.57207 3.713 5.00007 2.70567 5.00007 1.001C5.00007 0.903001 5.00007 0.810334 4.99474 0.717667C4.98207 0.521001 5.0574 0.328334 5.20007 0.192334C5.46474 -0.0589991 5.88874 -0.0589991 6.14274 0.202334L9.20274 3.32833C11.1494 5.30433 11.1527 8.52633 9.2094 10.507C8.2634 11.471 7.00607 12.001 5.6674 12.001Z" fill="white"/>
</svg>
