<svg width="12" height="14" viewBox="0 0 12 14" fill="none" xmlns="http://www.w3.org/2000/svg">
<path fill-rule="evenodd" clip-rule="evenodd" d="M6.47653 0.533748L11.6159 5.78975C11.8599 6.04041 11.9999 6.38975 11.9999 6.74908V12.3331C11.9999 13.0684 11.4352 13.6664 10.7412 13.6664H8.66653V7.66641C8.66653 7.29841 8.36853 6.99975 7.99986 6.99975H3.99986C3.6312 6.99975 3.3332 7.29841 3.3332 7.66641V13.6664H1.2592C0.565196 13.6664 -0.000137329 13.0684 -0.000137329 12.3331V6.74908C-0.000137329 6.38975 0.139863 6.04041 0.383196 5.79041L5.5232 0.533748C5.77453 0.277081 6.2252 0.277081 6.47653 0.533748ZM7.33333 13H4.66666V8.33334H7.33333V13Z" fill="white"/>
</svg>
