<svg width="4" height="12" viewBox="0 0 4 12" fill="none" xmlns="http://www.w3.org/2000/svg">
<path fill-rule="evenodd" clip-rule="evenodd" d="M2 2.66667C2.736 2.66667 3.33333 2.06933 3.33333 1.33333C3.33333 0.597333 2.736 0 2 0C1.264 0 0.666664 0.597333 0.666664 1.33333C0.666664 2.06933 1.264 2.66667 2 2.66667ZM2 4.66667C1.264 4.66667 0.666664 5.264 0.666664 6C0.666664 6.736 1.264 7.33333 2 7.33333C2.736 7.33333 3.33333 6.736 3.33333 6C3.33333 5.264 2.736 4.66667 2 4.66667ZM0.666664 10.6667C0.666664 9.93067 1.264 9.33333 2 9.33333C2.736 9.33333 3.33333 9.93067 3.33333 10.6667C3.33333 11.4027 2.736 12 2 12C1.264 12 0.666664 11.4027 0.666664 10.6667Z" fill="white"/>
</svg>
