<svg width="10" height="12" viewBox="0 0 10 12" fill="none" xmlns="http://www.w3.org/2000/svg">
<path fill-rule="evenodd" clip-rule="evenodd" d="M6.33334 2.66667C6.33334 1.93133 5.73534 1.33333 5 1.33333C4.26467 1.33333 3.66667 1.93133 3.66667 2.66667C3.66667 3.402 4.26467 4 5 4C5.73534 4 6.33334 3.402 6.33334 2.66667ZM7.66667 2.66667C7.66667 4.13733 6.47067 5.33333 5 5.33333C3.52934 5.33333 2.33334 4.13733 2.33334 2.66667C2.33334 1.196 3.52934 0 5 0C6.47067 0 7.66667 1.196 7.66667 2.66667ZM0.333336 11.3333C0.333336 8.76 2.42734 6.66667 5 6.66667C7.57267 6.66667 9.66667 8.76 9.66667 11.3333C9.66667 11.7013 9.36867 12 9 12C8.63134 12 8.33334 11.7013 8.33334 11.3333C8.33334 9.49533 6.838 8 5 8C3.162 8 1.66667 9.49533 1.66667 11.3333C1.66667 11.7013 1.36867 12 1 12C0.631336 12 0.333336 11.7013 0.333336 11.3333Z" fill="white"/>
</svg>
